<?xml version="1.0" encoding="UTF-8"?>
<svg xmlns="http://www.w3.org/2000/svg" viewBox="0 0 970.05 284.19">
  <g id="Layer_1">
    <rect x="4.37" y="-51.87" width="1024" height="500" style="fill: none;"/>
  </g>
  <g id="Layer_2">
    <g>
      <rect x="897.17" y="132.42" width="54.76" height="148" style="fill: #fff;"/>
      <g>
        <path d="M260.59,4.5v272.81h-64.6v-111.85h-126.8v111.85H4.59V4.5h64.6v107.56h126.8V4.5h64.6Z" style="fill: #fff;"/>
        <path d="M528.56,67.63v209.67h-59.02v-24.94c-16.35,18.32-40.27,28.06-66.59,28.06-53.83,0-91.71-29.62-91.71-94.31v-118.48h62.21v109.51c0,35.08,15.95,50.66,43.46,50.66s49.45-17.93,49.45-56.51v-103.67h62.21Z" style="fill: #fff;"/>
        <path d="M694.44,170.13l-37.48,38.19v68.98h-64.2V4.5h64.2v127.44L780.58,4.5h71.78l-115.64,121.59,122.42,151.21h-75.37l-89.32-107.17Z" style="fill: #fff;"/>
      </g>
      <circle cx="924.55" cy="46.27" r="45.5" style="fill: #fff;"/>
    </g>
  </g>
</svg>