<?xml version="1.0" encoding="UTF-8"?>
<svg xmlns="http://www.w3.org/2000/svg" viewBox="0 0 1041.18 400">
  <defs>
    <style>
      .cls-1 {
        fill: none;
      }

      .cls-2 {
        fill: #fff;
      }

      .cls-3 {
        fill: #fffefe;
      }
    </style>
  </defs>
  <g id="Layer_1" data-name="Layer 1">
    <rect class="cls-1" y="-50" width="1024" height="500"/>
  </g>
  <g id="Layer_2" data-name="Layer 2" stroke="#0C1617" stroke-width="2px">
    <g>
      <rect class="cls-2" x="955.79" y="242.89" width="42.5" height="114.87"/>
      <g>
        <path class="cls-2" d="M461.71,143.6v211.74h-50.14v-86.81h-98.42v86.81h-50.14v-211.74h50.14v83.49h98.42v-83.49h50.14Z"/>
        <path class="cls-2" d="M669.7,192.6v162.74h-45.81v-19.36c-12.69,14.22-31.26,21.78-51.69,21.78-41.78,0-71.19-22.99-71.19-73.2v-91.96h48.28v85c0,27.22,12.38,39.32,33.74,39.32s38.38-13.92,38.38-43.86v-80.46h48.28Z"/>
        <path class="cls-2" d="M798.45,272.16l-29.09,29.64v53.54h-49.83v-211.74h49.83v98.91l95.95-98.91h55.71l-89.76,94.38,95.02,117.37h-58.5l-69.33-83.18Z"/>
      </g>
      <circle class="cls-2" cx="977.04" cy="176.03" r="35.32"/>
    </g>
    <g>
      <g>
        <path class="cls-3" d="M14.77,162.52c2.92-3.93,4.44-13.11,10.18-12.96,3.58.54,5.3-1.23,6.77-4.24,4.51-9.25,9.46-18.27,15.36-26.73,7.17-12.27,17.86-5.03,28.65-3.1,12.96,3.56,5.06,16.18,2.98,24.92-5.8,18.89-11.56,37.79-17.51,56.64-6.56,21.1-29.34,8.15-43.01,2.78-17.4-7.54-10.93-24.71-3.41-37.31Z"/>
        <path class="cls-3" d="M53.34,335.78c-3.88,5.77-6.68,12.66-13.22,15.84-6.19,3.06-13.57.75-17.1-5.22-5.52-8.82,1.19-17.69,5.44-25.4,6.81-11.53,14.08-22.79,21.2-34.12,2.88-4.88,4.38-10.31,5.38-15.85,2.51-15.02,6.3-29.73,9.19-44.68,4.41,14.32,15.47,25.34,25.29,36.28.61.64.88,1.2.64,2.12-2.84,9.82-3.79,20.47-9.8,29.03-9.55,13.66-18.56,27.62-27.02,41.99Z"/>
        <path class="cls-3" d="M196.03,215.45c-6.24,47.45-11.32,94.91-18.26,142.23-.25,1.93-1.5,3-3.14,2.74-1.6-.25-6.4-.4-6.15-2.33,5.78-36.85,9.44-73.98,14.35-110.96,1.64-13.03,3.29-26.06,4.93-39.09.29-2.3.27-2.3,2.57-2.43.96-.05,5.74-.32,6.95-.41-.42,3.42-.82,6.78-1.25,10.25Z"/>
        <path class="cls-3" d="M193.6,149.73c.84-4.37-.51-11.38,6.31-9.32,1.1.45,3.88,1.2,3.72,2.55-1.2,9.52-2.28,19.04-3.63,28.54-1.77-.15-7.24-.14-9.08-.3.89-7.17,1.78-14.27,2.68-21.47Z"/>
      </g>
      <path class="cls-3" d="M96.03,90.16c-1.75-20.29,22.45-35.97,39.06-23.48,27.58,18.93-.06,65.46-28.88,44.07-6.48-5.29-9.76-12.18-10.18-20.59Z"/>
      <path class="cls-3" d="M149.58,316.37c-.76,14.48,2.07,42.65-19.2,40.93-20.01-4.5-12.58-28.79-11.48-43.36.23-14.11,4.94-31.02-6.83-41.82-13.19-12.74-26.53-25.51-36.64-40.94-5.05-7.05-6.42-16.01-4.63-24.42,6.12-23.75,12.9-47.42,20.59-70.72,3.7-11.35,18.18-15.67,28.4-10.54,9.58,5.5,12.71,17.23,18.68,25.93,11.89,21.15,15.24,28.8,41.41,25.01,3.55-.27,16.7-.1,20.16.81,11.4,2.89,7.94,20.39-3.38,21.11-14.6,1.21-30.88.22-45.43.4-5.18.06-9.05-1.98-12.19-5.96-9.12-11.54-18.31-23.03-27.48-34.53-.42-.53-1.97,2-2.83,2.65-.97.72,0,1.37.43,1.9,4.62,5.84,9.29,11.66,13.89,17.52.31.4.43,1.16.31,1.67-1.09,4.44-1.11,5.33-2.25,9.75-2.17,8.44-4.35,16.88-6.52,25.32-.95,4.25,3.09,7.14,5.17,10.33,35.04,48.55,32.28,28.63,29.83,88.97Z"/>
    </g>
  </g>
</svg>