<?xml version="1.0" encoding="UTF-8"?>
<svg xmlns="http://www.w3.org/2000/svg" viewBox="0 0 1041.18 400">
  <g id="Layer_1">
    <rect y="-50" width="1024" height="500" style="fill: none;"/>
  </g>
  <g id="Layer_2"
  stroke="#0C1617"
  stroke-width="3px">
    <g>
      <rect x="955.79" y="242.89" width="42.5" height="114.87" style="fill: #fff;"/>
      <g>
        <path d="M461.71,143.6v211.74h-50.14v-86.81h-98.42v86.81h-50.14v-211.74h50.14v83.49h98.42v-83.49h50.14Z" style="fill: #fff;"/>
        <path d="M669.7,192.6v162.74h-45.81v-19.36c-12.69,14.22-31.26,21.78-51.69,21.78-41.78,0-71.19-22.99-71.19-73.2v-91.96h48.28v85c0,27.22,12.38,39.32,33.74,39.32s38.38-13.92,38.38-43.86v-80.46h48.28Z" style="fill: #fff;"/>
        <path d="M798.45,272.16l-29.09,29.64v53.54h-49.83v-211.74h49.83v98.91l95.95-98.91h55.71l-89.76,94.38,95.02,117.37h-58.5l-69.33-83.18Z" style="fill: #fff;"/>
      </g>
      <circle cx="977.04" cy="176.03" r="35.32" style="fill: #fff;"/>
    </g>
    <g>
      <path d="M134.74,316.09c-.24,6.25-.41,12.4-.73,18.55-.24,4.53-.99,8.96-3.1,13.07-3.06,5.96-8.74,9.17-14.82,8.11-5.92-1.04-9.75-4.7-11.9-10.19-1.66-4.27-1.83-8.76-1.38-13.23.62-6.23,1.66-12.42,2.14-18.66.56-7.32.78-14.66,1.02-22,.24-7.31-2.56-13.47-7.65-18.59-4.52-4.54-9.27-8.86-13.75-13.45-7.97-8.17-15.51-16.73-21.82-26.29-2.4-3.64-4.22-7.55-4.9-11.91-.61-3.95-.27-7.88.41-11.79,1.3-7.52,3.95-14.66,6.06-21.96,2.46-8.52,4.69-17.11,7.2-25.61,2.09-7.07,4.25-14.13,6.73-21.07,2.46-6.89,7.73-10.65,14.83-11.94,4.42-.8,8.7-.36,12.73,1.71,3.6,1.84,6.21,4.76,8.24,8.16,3.37,5.63,6.57,11.35,9.89,17.01,2.96,5.04,5.86,10.13,9,15.05,4.75,7.45,11.75,10.58,20.48,10.02,3.57-.23,7.14-.52,10.71-.8,3.45-.27,6.86-.09,10.21.79,4.87,1.28,7.54,5.54,6.75,10.71-.82,5.31-4.32,8.92-10.02,9.78-3.22.49-6.53.58-9.79.58-8.31,0-16.63-.28-24.94-.19-5.03.05-8.78-1.92-11.83-5.79-8.85-11.2-17.77-22.35-26.67-33.51-.41-.51-.79-1.48-1.63-.85-.94.7,0,1.33.42,1.84,4.49,5.67,9.01,11.31,13.48,17,.3.39.42,1.12.3,1.62-1.06,4.31-2.19,8.59-3.3,12.89-2.11,8.19-4.22,16.38-6.32,24.57-.46,1.8.1,3.43,1.1,4.86,1.23,1.77,2.61,3.44,3.91,5.16,6.82,9.05,13.66,18.09,20.45,27.15,2.12,2.83,4.23,5.68,6.2,8.62,2.67,3.95,3.79,8.38,3.62,13.14-.39,11.07-.76,22.14-1.15,33.2-.05,1.38-.11,2.75-.18,4.24Z" style="fill: #fffefe;"/>
      <path d="M7.59,173.02c1.47-2.77,2.88-5.48,4.32-8.17.4-.75.82-1.51,1.3-2.21,1.02-1.47,2.46-2.47,4.25-2.2,3.47.53,5.15-1.2,6.57-4.12,4.38-8.98,9.18-17.74,14.9-25.95,1.18-1.7,2.55-3.32,4.07-4.71,2.57-2.35,5.8-2.49,8.98-1.83,4.95,1.03,9.85,2.31,14.76,3.54.89.22,1.75.64,2.57,1.07,3.95,2.07,5.43,5.21,4.26,9.72-1.17,4.5-2.58,8.94-3.94,13.39-2.92,9.58-5.87,19.16-8.83,28.73-2.7,8.75-5.39,17.51-8.17,26.24-1,3.15-2.5,6.09-5.15,8.23-3.62,2.91-7.86,3.58-12.34,3.1-3.83-.41-7.34-1.88-10.87-3.29-4.46-1.78-8.98-3.43-13.38-5.33-2.82-1.21-5.32-3.01-7.35-5.36-2.86-3.29-3.84-7.17-3.47-11.43.4-4.53,2.06-8.68,4.02-12.71,1.09-2.24,2.3-4.43,3.5-6.71Z" style="fill: #fffefe;"/>
      <path d="M45.66,329.03c-1.91,3.03-3.72,6.04-5.68,8.94-1.84,2.72-4.17,4.96-7.15,6.44-6.01,2.97-13.17.73-16.6-5.07-2.73-4.63-2.59-9.35-.41-14.02,1.7-3.64,3.63-7.18,5.69-10.63,4.16-6.97,8.44-13.87,12.73-20.77,2.57-4.14,5.37-8.15,7.85-12.34,2.8-4.74,4.25-10.01,5.22-15.38,1.68-9.31,3.43-18.61,5.7-27.8,1.13-4.59,1.91-9.27,2.85-13.9.1-.51.22-1.01.37-1.67.16.22.27.31.3.42,1.25,5.33,3.93,9.96,7.1,14.33,5.24,7.22,11,14.01,17.15,20.46.59.62.86,1.16.62,2.06-1.71,6.52-3.14,13.13-5.11,19.56-.93,3.04-2.65,5.92-4.4,8.61-3.63,5.59-7.66,10.93-11.28,16.53-4.39,6.78-8.54,13.73-12.78,20.61-.72,1.17-1.42,2.37-2.17,3.62Z" style="fill: #fffefe;"/>
      <path d="M92.34,104.51c-.2-7.66,2.07-14.36,7.05-20.06,8.71-9.97,22.96-11.4,33.25-4.17,15.39,10.81,15.83,34.84.26,46.22-8.85,6.47-21.54,6.21-30.05-.75-6.69-5.46-10.08-12.56-10.51-21.25Z" style="fill: #fffefe;"/>
      <path d="M168.41,213.5c-.82,6.42-1.62,12.75-2.42,19.07-1.18,9.39-2.36,18.79-3.53,28.18-.96,7.69-1.9,15.39-2.87,23.08-1.13,8.99-2.27,17.97-3.39,26.96-.81,6.51-1.59,13.02-2.4,19.53-1.03,8.25-2.07,16.49-3.12,24.74-.24,1.87-1.46,2.91-3.05,2.66-1.55-.24-2.31-1.61-2.07-3.49.69-5.32,1.33-10.65,1.99-15.98,1.18-9.43,2.37-18.86,3.55-28.29,1.4-11.21,2.78-22.42,4.17-33.62,1.34-10.76,2.68-21.52,4.03-32.29,1.59-12.65,3.19-25.29,4.78-37.94.28-2.23.26-2.23,2.5-2.36.93-.05,1.86-.13,3.03-.22-.4,3.32-.8,6.58-1.21,9.95Z" style="fill: #fffefe;"/>
      <path d="M170.16,157.66c.27-2.21.49-4.32.79-6.42.1-.68.27-1.41.62-1.99.6-.99,1.99-1.3,3.09-.85,1.06.44,1.68,1.52,1.53,2.83-.34,2.89-.71,5.77-1.07,8.65-.72,5.73-1.43,11.45-2.16,17.18-.08.62-.19,1.23-.29,1.87-1.71-.14-3.33-.28-5.11-.43.87-6.96,1.72-13.85,2.6-20.84Z" style="fill: #fffefe;"/>
    </g>
  </g>
</svg>