<svg version="1.1" id="Layer_1" xmlns="http://www.w3.org/2000/svg" x="0px" y="0px"
     width="100%" viewBox="0 0 1470 1445" enable-background="new 0 0 1470 1445" xml:space="preserve">
<path fill="#FFFEFE" opacity="1.000000" stroke="none"
	d="
M913.376099,1165.469727
	C912.300110,1193.412598 911.562317,1220.902344 910.131348,1248.355835
	C909.076904,1268.585449 905.698242,1288.416504 896.288391,1306.758789
	C882.624268,1333.393433 857.216309,1347.747437 830.077942,1343.001465
	C803.624756,1338.375366 786.487610,1322.013184 776.916687,1297.450317
	C769.480225,1278.365356 768.748779,1258.325073 770.736206,1238.314453
	C773.501282,1210.474976 778.149231,1182.801147 780.280823,1154.925659
	C782.781250,1122.224731 783.751831,1089.393677 784.823059,1056.600586
	C785.890259,1023.933289 773.394348,996.400574 750.639404,973.534485
	C730.432068,953.228516 709.196228,933.937622 689.193787,913.438110
	C653.557373,876.916687 619.891357,838.655945 591.700867,795.940674
	C580.979309,779.695068 572.830627,762.212036 569.816284,742.735596
	C567.081787,725.066956 568.606750,707.504456 571.633301,690.029968
	C577.452515,656.431763 589.285217,624.494324 598.719482,591.887146
	C609.732483,553.823608 619.664551,515.444763 630.885498,477.444733
	C640.214783,445.850586 649.900391,414.310822 660.955627,383.291382
	C671.929443,352.500641 695.484375,335.684265 727.251038,329.950012
	C747.013000,326.382782 766.127502,328.344086 784.153564,337.571747
	C800.241455,345.807190 811.893250,358.851135 820.980591,374.032043
	C836.033447,399.178772 850.354370,424.762299 865.185913,450.043121
	C878.405151,472.575745 891.355103,495.294159 905.397644,517.309448
	C926.642883,550.616760 957.928772,564.591736 996.937683,562.070557
	C1012.895935,561.039185 1028.838013,559.751404 1044.782471,558.515076
	C1060.180298,557.321106 1075.424316,558.093689 1090.409790,562.033142
	C1112.156128,567.749878 1124.117188,586.799866 1120.564575,609.914062
	C1116.915649,633.654602 1101.244385,649.763184 1075.765625,653.618164
	C1061.368164,655.796570 1046.596924,656.191406 1031.994141,656.191895
	C994.836975,656.193054 957.673340,654.931885 920.524963,655.337158
	C898.042786,655.582458 881.271851,646.737366 867.637085,629.483826
	C828.076843,579.423950 788.219666,529.598694 748.436646,479.715149
	C746.608276,477.422607 744.886719,473.107513 741.155579,475.896271
	C736.948364,479.040863 741.192810,481.832703 743.018066,484.140411
	C763.067932,509.491150 783.293762,534.702942 803.259216,560.119507
	C804.621582,561.853882 805.137146,565.138794 804.594604,567.345642
	C799.863525,586.591248 794.786377,605.751709 789.840149,624.944641
	C780.408203,661.544067 770.986084,698.146118 761.580566,734.752441
	C759.509216,742.814087 762.048462,750.061768 766.496399,756.492126
	C771.981567,764.421997 778.173462,771.860413 783.986145,779.566895
	C814.479675,819.995117 845.011292,860.394897 875.391785,900.907898
	C884.879272,913.559753 894.273193,926.307312 903.108032,939.416687
	C915.018066,957.088623 920.050354,976.853699 919.297729,998.151794
	C917.550110,1047.611328 915.884277,1097.073608 914.172852,1146.534302
	C913.959778,1152.691284 913.670776,1158.845459 913.376099,1165.469727
z"/>
<path fill="#FFFEFE" opacity="1.000000" stroke="none"
	d="
M345.143616,526.132263
	C351.698456,513.748962 358.035339,501.664917 364.458588,489.626984
	C366.257446,486.255737 368.113220,482.883087 370.288361,479.750977
	C374.859253,473.168976 381.262878,468.714478 389.298981,469.933838
	C404.824097,472.289520 412.292603,464.589325 418.664032,451.527618
	C438.234314,411.407715 459.700165,372.268280 485.270844,335.575562
	C490.554779,327.993317 496.674408,320.753174 503.479431,314.525085
	C514.944031,304.032410 529.406616,303.376892 543.601868,306.336182
	C565.725220,310.948273 587.623962,316.657074 609.558105,322.140228
	C613.544617,323.136780 617.385071,325.010712 621.053650,326.935699
	C638.707214,336.198853 645.326172,350.229248 640.110413,370.372406
	C634.899292,390.497711 628.562744,410.337616 622.490234,430.232635
	C609.421326,473.050110 596.247803,515.835876 583.036682,558.609741
	C570.953735,597.731079 558.950134,636.878723 546.524536,675.891418
	C542.039429,689.973328 535.352966,703.118408 523.506104,712.648438
	C507.315887,725.672363 488.398926,728.627380 468.339813,726.480469
	C451.233337,724.649536 435.544800,718.064087 419.767029,711.765686
	C399.837128,703.809814 379.656555,696.447083 359.954651,687.967529
	C347.358765,682.546265 336.201233,674.514526 327.087128,664.011230
	C314.318848,649.296753 309.911713,631.986572 311.574066,612.922974
	C313.339630,592.675659 320.788330,574.147949 329.517273,556.102173
	C334.367828,546.074341 339.792450,536.324280 345.143616,526.132263
z"/>
<path fill="#FFFEFE" opacity="1.000000" stroke="none"
	d="
M515.278320,1223.292847 
	C506.723328,1236.832642 498.660431,1250.265137 489.896118,1263.223267 
	C481.682526,1275.367188 471.263916,1285.400391 457.936798,1291.994629 
	C431.088501,1305.279297 399.060364,1295.262207 383.765472,1269.348633 
	C371.546021,1248.645630 372.180664,1227.568359 381.946259,1206.693237 
	C389.547638,1190.444336 398.187714,1174.607910 407.379608,1159.192261 
	C425.962524,1128.026978 445.110046,1097.195312 464.267639,1066.376953 
	C475.772308,1047.869751 488.282257,1029.970215 499.347656,1011.211914 
	C511.838196,990.037598 518.342102,966.482361 522.667908,942.478577 
	C530.168945,900.855652 538.016663,859.334473 548.125854,818.236206 
	C553.171936,797.721619 556.670044,776.826538 560.878540,756.105530 
	C561.339294,753.836975 561.868103,751.582214 562.509888,748.663696 
	C563.210205,749.631226 563.731506,750.049011 563.851440,750.560730 
	C569.430359,774.382263 581.399719,795.067505 595.573608,814.594238 
	C618.990295,846.854370 644.712830,877.207642 672.224854,906.040649 
	C674.856262,908.798401 676.055542,911.231018 675.003845,915.253723 
	C667.383972,944.399414 660.987793,973.908752 652.162415,1002.676575 
	C647.993835,1016.264893 640.324463,1029.120728 632.493774,1041.173096 
	C616.259644,1066.159424 598.276123,1090.010498 582.085022,1115.023193 
	C562.458435,1145.343018 543.929199,1176.373535 524.953613,1207.114136 
	C521.717224,1212.356934 518.623718,1217.688110 515.278320,1223.292847 
z"/>
<path fill="#FFFEFE" opacity="1.000000" stroke="none" 
	d="
M723.907898,219.951904 
	C723.014099,185.720551 733.159790,155.769608 755.402649,130.316208 
	C794.348206,85.749367 858.026917,79.377022 904.004089,111.673553 
	C972.769104,159.977341 974.741577,267.374268 905.170593,318.238922 
	C865.629639,347.148102 808.924622,346.000793 770.858398,314.905090 
	C740.972107,290.491425 725.831970,258.754028 723.907898,219.951904 
z"/>
<path fill="#FFFEFE" opacity="1.000000" stroke="none"
	d="
M1063.836914,707.022400 
	C1060.194580,735.729187 1056.592163,763.990845 1053.040161,792.258972 
	C1047.765015,834.240662 1042.512695,876.225220 1037.275146,918.211609 
	C1032.986084,952.595337 1028.761963,986.987305 1024.456177,1021.368896 
	C1019.426636,1061.530151 1014.304260,1101.679810 1009.289612,1141.842773 
	C1005.658264,1170.926758 1002.182617,1200.030273 998.555054,1229.114624 
	C993.957947,1265.972656 989.299744,1302.822998 984.615295,1339.670044 
	C983.553528,1348.021606 978.103516,1352.663940 970.984497,1351.546631 
	C964.057739,1350.459473 960.641113,1344.349854 961.723938,1335.957886 
	C964.793030,1312.171997 967.648743,1288.358521 970.627502,1264.560913 
	C975.901733,1222.423462 981.234009,1180.293335 986.488037,1138.153320 
	C992.732178,1088.072388 998.902527,1037.982300 1005.136169,987.900085 
	C1011.122681,939.802979 1017.122620,891.707581 1023.164734,843.617432 
	C1030.265625,787.100647 1037.431885,730.592102 1044.535889,674.075684 
	C1045.789307,664.104187 1045.713989,664.118103 1055.697266,663.549438 
	C1059.848511,663.312927 1063.992554,662.951660 1069.250122,662.565674 
	C1067.447388,677.395264 1065.673462,691.987732 1063.836914,707.022400 
z"/>
<path fill="#FFFEFE" opacity="1.000000" stroke="none"
	d="
M1071.654785,457.460419
	C1072.869263,447.600006 1073.859619,438.161438 1075.188843,428.770844
	C1075.621582,425.713501 1076.402710,422.456177 1077.972656,419.864716
	C1080.655762,415.435699 1086.844971,414.058990 1091.780762,416.076935
	C1096.538208,418.021942 1099.301147,422.868408 1098.616333,428.730682
	C1097.110229,441.624603 1095.454102,454.501099 1093.841675,467.382507
	C1090.637939,492.976593 1087.430298,518.570251 1084.199341,544.160889
	C1083.850342,546.924133 1083.336670,549.666565 1082.882080,552.527222
	C1075.219971,551.881531 1067.998169,551.272949 1060.024414,550.600952
	C1063.894775,519.505005 1067.728516,488.702942 1071.654785,457.460419
z"/>
</svg>